<svg id="visual" viewBox="0 0 900 600" width="900" height="600" xmlns="http://www.w3.org/2000/svg" xmlns:xlink="http://www.w3.org/1999/xlink" version="1.1"><path d="M0 176L129 218L257 199L386 212L514 152L643 189L771 247L900 248L900 0L771 0L643 0L514 0L386 0L257 0L129 0L0 0Z" fill="#6600ff"></path><path d="M0 188L129 173L257 122L386 134L514 153L643 127L771 165L900 190L900 0L771 0L643 0L514 0L386 0L257 0L129 0L0 0Z" fill="#2b2ccf"></path><path d="M0 114L129 154L257 92L386 135L514 90L643 155L771 159L900 154L900 0L771 0L643 0L514 0L386 0L257 0L129 0L0 0Z" fill="#002f99"></path><path d="M0 110L129 86L257 73L386 82L514 67L643 116L771 57L900 56L900 0L771 0L643 0L514 0L386 0L257 0L129 0L0 0Z" fill="#00255e"></path><path d="M0 30L129 47L257 67L386 66L514 45L643 42L771 60L900 68L900 0L771 0L643 0L514 0L386 0L257 0L129 0L0 0Z" fill="#001122"></path></svg>